<svg xmlns="http://www.w3.org/2000/svg" width="35" height="422" version="1" viewBox="0 0 32 32"><path fill="#ffcc0f" fill-rule="evenodd" d="M 32,16 C 32,24.823921 24.82392,32 16,32 7.17608,32 0,24.823921 0,16 0,7.1760799 7.17608,2e-7 16,2e-7 24.877076,2e-7 32,7.1760799 32,16 l 0,0 z" clip-rule="evenodd"/><path fill="#ffa720" d="M 17.677734 31.830078 C 18.191898 31.775517 18.722128 31.77609 19.220703 31.673828 C 20.261401 31.460373 21.265846 31.14555 22.222656 30.740234 C 23.179467 30.334919 24.088124 29.839253 24.939453 29.263672 C 25.790782 28.688091 26.584341 28.032846 27.308594 27.308594 C 28.032846 26.584341 28.68809 25.790782 29.263672 24.939453 C 29.839253 24.088124 30.334919 23.179467 30.740234 22.222656 C 31.14555 21.265846 31.460373 20.261401 31.673828 19.220703 C 31.77609 18.722128 31.775517 18.191898 31.830078 17.677734 L 24.119141 9.9667969 C 23.854883 9.7025389 23.487241 9.5410156 23.076172 9.5410156 L 22.783203 9.5410156 L 22.783203 10.128906 L 22.195312 9.5410156 L 20.609375 9.5410156 L 20.609375 10.126953 L 20.023438 9.5410156 L 18.4375 9.5410156 L 18.4375 10.128906 L 17.849609 9.5410156 L 16.263672 9.5410156 L 16.263672 10.126953 L 15.677734 9.5410156 L 14.091797 9.5410156 L 14.091797 10.070312 L 13.5625 9.5410156 L 11.976562 9.5410156 L 11.976562 10.126953 L 11.390625 9.5410156 L 9.8046875 9.5410156 L 9.8046875 10.128906 L 9.2167969 9.5410156 L 8.9238281 9.5410156 C 8.1016912 9.5410156 7.4550781 10.185676 7.4550781 11.007812 L 7.4550781 11.888672 L 8.0429688 12.476562 L 7.4550781 12.476562 L 7.4550781 19.816406 L 8.0429688 20.404297 L 7.4550781 20.404297 L 7.4550781 20.992188 C 7.4550781 21.403257 7.6166011 21.768944 7.8808594 22.033203 L 17.677734 31.830078 z "/><path fill="#fff" d="m 8.9238018,9.5403521 c -0.8221369,0 -1.4681015,0.6459639 -1.4681015,1.4681009 l 0,0.880862 1.7617219,0 0,-2.3489629 0,0 -0.2936204,0 0,0 z m 0.8808625,0 0,0 0,2.3489629 1.5855497,0 0,-2.3489629 0,0 -1.5855497,0 0,0 z m 2.1727897,0 0,0 0,2.3489629 1.58555,0 0,-2.3489629 0,0 -1.58555,0 0,0 z m 2.114067,0 0,0 0,2.3489629 1.585551,0 0,-2.3489629 -1.585551,0 0,0 z m 2.172793,0 0,2.3489629 1.585548,0 0,-2.3489629 0,0 -1.585548,0 0,0 z m 2.172788,0 0,0 0,2.3489629 1.585552,0 0,-2.3489629 0,0 -1.585552,0 0,0 z m 2.172792,0 0,0 0,2.3489629 1.585551,0 0,-2.3489629 0,0 -1.585551,0 0,0 z m 2.172791,0 0,0 0,2.3489629 1.761722,0 0,-0.880862 c 0,-0.822137 -0.645963,-1.4681009 -1.468101,-1.4681009 l -0.293621,0 0,0 z m -15.3269847,2.9362029 0,7.34051 1.9378948,0 0.1174484,0 14.9746395,0 c 0,0 0,0 0,0 l 0,-7.34051 -1.996618,0 c 0,0 -0.05874,0 -0.05874,0 0,0 -0.05874,0 -0.05874,0 l -2.055342,0 c 0,0 -0.05873,0 -0.05873,0 -0.05873,0 -0.05873,0 -0.05873,0 l -2.055342,0 c 0,0 -0.05874,0 -0.05874,0 -0.05872,0 -0.05872,0 -0.05872,0 l -2.055317,0 c 0,0 -0.05874,0 -0.05874,0 -0.05873,0 -0.05873,0 -0.05873,0 l -2.055344,0 c 0,0 -0.05874,0 -0.05874,0 0,0 -0.05873,0 -0.05873,0 l -2.055343,0 c 0,0 -0.05874,0 -0.05874,0 0,0 -0.05874,0 -0.05874,0 l -1.9966193,0 c 0,0 -0.058725,0 -0.058725,0 0,0 -0.058725,0 -0.058725,0 l -1.9378947,0 0,0 z m 7.1056137,1.174481 c 0.05874,0 0.05874,0 0.117448,0.05873 l 3.28855,2.055342 c 0,0 0.05872,0.05874 0.05872,0.05874 0.117446,0.117448 0.05873,0.411068 -0.05872,0.469792 l -3.28855,2.055345 c -0.176172,0.117444 -0.411068,-0.05874 -0.411068,-0.293623 l 0,-4.110687 c 0,-0.117448 0.117449,-0.29362 0.29362,-0.29362 l 0,0 z m -7.1056137,6.753269 0,0.587241 c 0,0.822138 0.6459646,1.468102 1.4681015,1.468102 l 0.2936204,0 0,-2.055343 -1.7617219,0 0,0 z m 2.348964,0 0,2.055343 1.5855497,0 0,-2.055343 -1.5855497,0 0,0 z m 2.1727897,0 0,2.055343 1.58555,0 0,-2.055343 -1.58555,0 0,0 z m 2.114068,0 0,2.055343 1.58555,0 0,-2.055343 -1.58555,0 0,0 z m 2.172792,0 0,2.055343 1.585548,0 0,-2.055343 -1.585548,0 0,0 z m 2.172788,0 0,2.055343 1.585552,0 0,-2.055343 -1.585552,0 0,0 z m 2.172792,0 0,2.055343 1.585551,0 0,-2.055343 -1.585551,0 0,0 z m 2.172791,0 0,2.055343 0.293621,0 c 0.822138,0 1.468101,-0.645964 1.468101,-1.468102 l 0,-0.587241 c 0,0 0,0 0,0 l -1.761721,0 0,0 z"/></svg>